<?xml version="1.0" encoding="utf-8"?>
<!-- Generator: Adobe Illustrator 26.5.2, SVG Export Plug-In . SVG Version: 6.00 Build 0)  -->
<svg version="1.1" id="Layer_1" xmlns="http://www.w3.org/2000/svg" xmlns:xlink="http://www.w3.org/1999/xlink" x="0px" y="0px"
	 viewBox="0 0 832 602.2" style="enable-background:new 0 0 832 602.2;" xml:space="preserve">
<style type="text/css">
	.st0{fill:none;stroke:#FFFFFF;stroke-width:14;stroke-linecap:round;stroke-linejoin:round;}
</style>
<path class="st0" d="M504.2,69c-5.5-0.2-13.4,0-22.7,1.6c-32.3,5.8-53.3,24.7-62.9,33.7c-16.6,15.4-51.7,47.9-48.7,96
	c3.2,50.4,45.6,79.6,51.5,83.5c20.1,12,34.5,24.5,44,33.8c13.6,13.3,21.3,21.1,25.4,34.5c6,19.6,0,36.8-1.6,40.7
	c-7.2,18.8-21.9,28.9-34.5,37.3c-62.1,41.4-105.5,64.6-105.5,64.6c-58.6,31.3-75.1,39.4-79.4,34.4c-3.9-4.5,3.9-17.3,11.5-28.7
	c46.7-69.3,114-120.3,181-170.4c28.9-21.6,43.3-32.4,43.8-32.8c129-95.8,193.5-143.7,247.7-181.7C783,95.1,821.7,68.4,819.2,64
	c-1-1.7-7.6,0.3-14.8,3c-335,123.9-648.9,327.6-648.9,327.6c-34.4,22.3-81.7,53.2-138.1,90.7"/>
<path class="st0" d="M209.4,261c0,0-9.5,0.7-13.4,7.6c-5.5,9.9,5.7,25.9,10.3,32.4c9,12.9,14.1,12.4,16.4,21.2
	c2.7,10.2,0.8,25.3-7.7,28.5c-5,1.9-12.3-0.3-14.5-4.9c-2.8-6,3.7-14.1,8.5-17.8c12.7-9.6,31.5-1.3,33.2-0.4c2-0.2,5.8-0.9,9.3-3.6
	c7.1-5.2,10.4-15.9,6.7-23c-0.5-0.9-2.5-4.9-6.2-5.4c-5.3-0.8-10.1,6-12,10.2c-0.8,1.8-4,9.1,0,15.1c1.5,2.2,4.6,5.4,7.9,5.2
	c5.6-0.3,11.1-10.2,12.5-25.1c0,0.5-0.7,7.4,4.4,11.5c2.7,2.1,5.6,2.4,6.8,2.4c2-0.9,5-2.6,7.8-5.5c1.8-1.8,6.3-6.3,7.1-12.5
	c1-7.6-4.6-10-3.1-15.9c1.5-6,9-10.9,13.3-9.3c3.2,1.2,4.6,5.9,6.2,11.1c1.6,5.3,1.4,8.4,2.2,8.4c1.5,0.1,2.4-9.6,8.4-20.9
	c2.5-4.8,5.1-9.6,8-9.3c3.2,0.3,3.5,6.8,10.7,14.7c3,3.3,5.2,5.8,7.5,5.3c2.5-0.5,3.8-4.5,7.2-20c3.1-14.2,4-19.5,6.7-20
	s3.9,4.6,10.7,8c1.8,0.9,7.2,3.6,12.9,1.8c7.9-2.5,11.2-12.1,11-18.6c-0.1-1.9-0.2-5.3-2.6-7.2c-2.5-1.9-6.6-1.6-8.9,0
	c-7,4.6-6.5,26.2,3.6,31.6c11.2,6,27.8-11.3,28.9-12.4c8.5-9.1,10.9-19.4,12-24.9c4.8-22.8-3-46.8-7.6-46.7
	c-3.2,0.1-6,11.8-5.3,20.9c0.2,2.9,1,14.5,9.8,21.8c1.5,1.2,4.3,3.5,8.7,4.4c7.6,1.6,13.8-2.2,15.4-3.2c5-3.8,9.9-7.6,15-11.4
	c8.2-6.2,38.3-31.4,129.3-91.6"/>
</svg>
