<?xml version="1.0" encoding="UTF-8"?>
<svg id="Layer_1" data-name="Layer 1" xmlns="http://www.w3.org/2000/svg" viewBox="0 0 814.29 475.93">
  <defs>
    <style>
      .cls-1 {
        fill: #231f20;
      }
    </style>
  </defs>
  <path class="cls-1" d="M486.8,10.08c-11.49-1.72-22.9-.55-33.95,3.02-5.71,1.85-11.25,4.24-16.62,6.9s-10.98,5.33-15.77,8.79c-17.31,12.5-33.23,26.95-45.73,44.41s-20.17,35.96-21.36,56.52,5.09,42.54,16.4,60.22,26.67,31.28,42.89,43.77c8.81,6.79,18.02,13.05,26.79,19.9s18.46,14.5,25.28,23.99c6.64,9.24,11.66,21.06,11.75,32.54,.09,12.17-5.49,25.18-12.59,34.84-7.72,10.49-18.24,18.74-28.63,26.45-10.52,7.8-21.29,15.26-32.28,22.39-42.55,27.58-88.24,49.72-134.65,69.97-5.72,2.5-11.45,4.96-17.19,7.42l3.67,2.82c-.2,.63-.35,.21,0,.25l-2.16-1.24,.09,.12v-2.52c.57-.86-1.13,.36-1.6,.58l3.42,3.42c.94-2.13-.14-7.53,1.69-8.72l-3.67-1.49c1.24,3.08,.15,4.96-1.95,7.18l4.18,2.43c.35-2.32,.69-4.65,1.14-6.95,.11-.56,.43-1.3,.4-1.86-.03-.63,.82-1.1-.21-.06l-2.43,.64c-5.26-1.07-1.06-2.93-1.68-1.41-.08,.21,.03,.52-.03,.74-.19,.78-.14,1.68-.26,2.48-.13,.85-.34,1.68-.5,2.52s-.82,1.54-.1,1.07l3.67,2.82c2.01-11.49,6.45-21.56,13.28-31.01,6.8-9.42,14.95-17.83,22.96-26.22,16.16-16.93,32.59-33.6,49.62-49.65,8.5-8.01,17.15-15.86,25.97-23.52,4.49-3.9,9.02-7.74,13.59-11.54,4.65-3.86,9.65-7.36,13.59-11.96,4.21-4.92,8.87-8.56,14.04-12.43,2.15-1.62,4-3.29,5.91-5.19,.66-.66,1.31-1.37,2-2,1.34-1.21,2.35-1.28,3.79-2.11,2.02-1.18,3.55-3.28,5.21-4.89,2.23-2.15,4.69-3.91,7.14-5.8,4.29-3.29,8.37-6.82,12.56-10.24s9.16-6.25,13.29-10.04c4.71-4.32,9.97-7.96,15.25-11.56,10.27-6.99,20.3-14.1,30.21-21.59,19.8-14.98,39.76-29.74,59.82-44.36,39.25-28.62,78.87-56.74,118.21-85.23,44.84-32.47,89.4-65.45,132.33-100.43,1.62-1.32,.33-4.5-1.77-4.27-5.69,.62-11.34,.37-16.53,3.15-1.89,1.01-1.45,4.05,.6,4.57,5.77,1.46,12.21,.15,17.19-3.06,1.91-1.23,1.37-4.91-1.26-4.66-28.6,2.68-55.08,13.82-81.11,25.25-7.1,3.12-14.27,6.08-21.34,9.24-2.39,1.07-4.15,2.65-6.27,4.14-2.97,2.09-6.61,3.18-9.94,4.55-13.47,5.55-26.49,12.16-39.84,17.97s-25.49,13.47-38.66,19.49c-13.97,6.38-27.82,13.01-41.61,19.76-26.95,13.18-53.89,26.44-80.66,39.96-6.02,3.04-11.52,6.82-17.73,9.49s-11.35,6.15-17.17,9.16c-13.15,6.8-26.5,13.25-39.67,20.04-27.15,14-54.2,28.2-81.11,42.66-54.63,29.35-108.69,59.77-161.85,91.72s-104.62,64.94-155.2,100.03c-6.19,4.29-12.36,8.62-18.51,12.96-2.61,1.84-.11,6.18,2.52,4.32,49.91-35.27,101.09-68.7,153.22-100.57,52.49-32.09,105.93-62.63,159.96-92.04,26.92-14.65,53.98-29.03,81.16-43.19,13.21-6.88,26.45-13.71,39.71-20.5,6.56-3.36,13.17-6.59,19.78-9.85,5.69-2.81,10.85-6.54,16.65-9.12,6.11-2.72,11.65-5.9,17.51-9.09,6.32-3.44,12.95-6.3,19.37-9.56,13.47-6.85,27-13.57,40.55-20.27s27.26-13.48,40.97-20.05,27.25-11.98,40.12-19.3,26.06-12.9,39.37-19.03c6.78-3.12,13.53-6.31,20.38-9.27,2.86-1.24,5.78-2.33,8.64-3.57,3.13-1.36,5.38-3.31,8.18-5.13,5.65-3.68,12.96-5.77,19.14-8.48,6.87-3.02,13.74-6.06,20.66-8.95,13.25-5.55,26.77-10.61,40.74-14.01,7.26-1.77,14.61-3.04,22.06-3.74l-1.26-4.66c-3.86,2.48-8.83,3.7-13.34,2.55l.6,4.57c4.3-2.3,9.29-1.95,14-2.46l-1.77-4.27c-77.14,62.84-159.22,119.28-239.68,177.7-19.97,14.5-39.85,29.11-59.58,43.93-10.05,7.55-19.87,15.48-30.3,22.49-5.01,3.37-10.07,6.67-15,10.16s-9.5,7.67-14.33,11.51c-4.09,3.25-8.46,5.93-12.47,9.31-4.85,4.08-10.1,7.69-14.95,11.75-1.79,1.49-3.31,3.29-5.01,4.89-1.6,1.51-3.29,1.89-4.99,3.11-2.05,1.47-3.67,3.66-5.51,5.39-2.72,2.56-5.91,4.67-8.89,6.91-4.34,3.25-7.27,7.13-11.02,10.97-4.51,4.62-10.11,8.42-15.06,12.58-9.01,7.57-17.86,15.34-26.54,23.28-19.38,17.74-37.93,36.35-56.11,55.31-8.74,9.11-17.58,18.2-25.22,28.28-3.7,4.88-7.34,10.14-9.8,15.77-2.66,6.08-4.44,12.05-5.59,18.61-.35,1.98,1.68,4.11,3.67,2.82,3-1.94,3.76-8.55,3.34-11.79-.3-2.36-2.8-4.03-4.66-1.79-2.03,2.45-1.93,7.91-2.35,10.76-.34,2.26,2.29,4.43,4.18,2.43,3.31-3.51,5.14-7.32,3.23-12.05-.57-1.41-2.19-2.46-3.67-1.49-1.67,1.09-2.77,2.33-3.24,4.29s.55,4.41-.24,6.22c-1.03,2.34,1.06,4.49,3.42,3.42,1.32-.59,2.58-1.13,3.4-2.37,.44-.67,.5-1.86,0-2.52-2.13-2.79-6.15-.79-7.07,2.07-.74,2.3,1.84,3.61,3.67,2.82,45.72-19.56,91.03-40.31,133.67-66.02,21.81-13.16,43.66-27.26,63.16-43.71,9.05-7.63,18.1-16.31,23.33-27.14,4.69-9.71,8.31-20.68,7.54-31.6-1.58-22.65-17.32-40.25-34.22-53.71-16.9-13.46-35.15-25.14-50.95-39.97-15.17-14.24-27.83-31.18-33.79-51.35-6.3-21.3-5.18-43.5,3.75-63.89s22.83-36.42,38.71-50.64c17.05-15.27,38.31-28.76,61.27-32.5,6.4-1.04,12.96-1.05,19.37-.1,3.15,.47,4.51-4.35,1.33-4.82h0Z"/>
  <path class="cls-1" d="M571.8,53.32c-24.79,16.91-49.56,33.86-74.18,51.03-16.68,11.63-33.36,23.29-49.67,35.44-4.92,3.66-9.83,7.36-14.56,11.25-2.12,1.75-4.12,3.68-6.39,5.23-4.98,3.42-11.01,5.12-16.64,2.13-11.25-6-15.13-20.65-12.63-32.38,.49-2.29,1.14-4.64,2.31-6.68,.28-.5,1.05-1.1,1.13-1.49-.1,.52-1.37-.1-1.49-.07,.18-.05,.25,.31,.25,.3,.18,.29,.35,.6,.49,.91,.33,.7,.64,1.69,.89,2.55,.67,2.27,1.14,4.6,1.56,6.93,.95,5.33,1.56,10.72,1.95,16.11,.45,6.3,.55,12.75-.83,18.95-1.34,6.03-3.97,11.71-7.57,16.72-3.88,5.39-9.11,9.41-14.6,13.03-2.2,1.45-4.48,3.31-7.02,4.11-1.93,.61-5.06-.65-7.06-2.16-1.26-.95-2.4-2.14-3.34-3.39-.47-.63-.9-1.31-1.28-2-.19-.34-.36-.68-.53-1.03-.22-.45-.24-.56-.14-.3-.13-.36-.24-.72-.34-1.09s-.03-.33,0,.07c-.01-.24-.04-.47-.03-.71,.09-3.45,.75-6.92,1.05-10.36,.15-1.74,.28-3.48,.4-5.22,.07-1.05,.03-2.2,1.09-2.75,2.67-1.38,5.4,.98,5.86,3.48,.97,5.18-1.19,11.02-4.21,15.15-2.81,3.84-7.32,6.76-11.9,4.1s-12.63-16.31-18.55-7.94c-2.68,3.78-3.22,9.21-4,13.64-1.12,6.35-2.1,12.77-4.11,18.92-.54,1.65-1.5,5.51-3.88,4.72-2.62-.87-4.2-3.64-5.04-6.07-1.76-5.11-5.76-12.49-12.19-12.24s-8.99,8.61-10.95,13.32c-2.14,5.17-3.49,10.65-5.69,15.78-.15,.34-.32,.67-.48,1-.23,.46-.1,.31-.18,.31,.34-.02,.8-.44,1.22-.44,1.02,0,.76,.22,1.3,.5l.23,.29-.08-.14c-.13-.01,.03,.12-.04-.1-.53-1.5-.75-3.12-1.05-4.67-.76-4.02-1.46-8.52-3.85-11.94-3.06-4.37-8.24-4.28-12.47-1.51-5.02,3.28-8.69,9.09-7.69,15.22,.39,2.41,1.55,4.64,1.83,7.06,.17,1.45-.17,2.64-.45,4.03-.18,.88,.34-.49-.04,.07-.17,.26-.35,.53-.53,.79-1.28,1.84-2.66,3.62-3.99,5.42-.99,1.34-1.97,2.68-2.94,4.02s-1.98,3.05-3.54,3.7c-2.75,1.15-5.45-1.98-6.46-4.15-1.57-3.37-1.82-7.24-3.19-10.7-.97-2.46-4.95-2.36-4.91,.66,.09,6.15-.6,12.25-2.19,18.2-1.07,4.02-2.83,8.95-7.94,7.36-10.44-3.25-5.01-19.62,1.28-24.39,1.53-1.16,3.51-1.79,5.25-.71,1.56,.96,2.2,2.89,2.54,4.6,.87,4.32-.37,9.13-2.26,13.02-1.46,2.99-3.17,5.42-5.89,7.4-1.49,1.08-3.31,1.79-5.15,1.43-1.72-.34-3.33-1.39-4.93-2.07-8.4-3.56-17.88-2.91-26.08,.84-4.67,2.13-9.14,5.28-11.8,9.76-2.51,4.24-3.21,9.6-.73,14.02,2.25,4.01,6.83,6.87,11.49,6.12,4.98-.8,8.17-5.24,10.09-9.55,2.37-5.3,3.45-11.04,3.67-16.82s-.34-11.11-4.06-15.66-8.87-8.46-12.89-13.08-7.43-9.9-8.97-15.9c-.75-2.91-1.05-5.94-.73-8.93,.26-2.43,.86-5.48,2.59-7.31,2.33-2.45,6.23-2.67,9.39-2.9s3.22-5.23,0-5c-3.48,.25-6.98,.61-10.11,2.28-4.67,2.49-6.3,7.65-6.84,12.61-1.31,11.98,5.49,22.8,13.37,31.14,1.98,2.1,4.06,4.1,6.16,6.07s4.32,3.86,5.69,6.39c1.45,2.69,1.47,5.91,1.43,8.89s-.31,6.06-.94,9.03c-.95,4.45-3.02,12.26-8.14,13.7-4.81,1.35-8.33-4.38-7.67-8.53,.9-5.72,6.1-9.42,10.95-11.75,3.65-1.76,7.63-2.71,11.64-2.8,2.85-.06,5.68,.3,8.4,1.15,2.11,.66,4.02,1.74,6.06,2.56,4.46,1.79,8.93,.25,12.43-2.8,6.34-5.53,10.01-15.01,8.87-23.35-.6-4.38-2.95-8.87-7.6-9.91-5.41-1.21-9.93,2.82-12.65,7.05-5.48,8.49-7.78,23,3.61,27.75,4.44,1.85,9.38,.88,12.29-3.09,1.64-2.23,2.42-5.02,3.11-7.66,.8-3.06,1.36-6.16,1.75-9.3s.57-6.57,.52-9.87l-4.91,.66c2.64,6.69,2.75,16.42,11.37,18.5,3.63,.88,6.84-.89,9.09-3.65s4.25-5.78,6.38-8.65c1.01-1.36,2.2-2.71,3.01-4.2,1.35-2.49,1.35-5.74,.82-8.44-.5-2.54-1.87-4.99-1.76-7.63,.12-3.09,2.29-6.02,4.65-7.86,1.47-1.15,4.15-2.67,5.72-1.52,1.13,.83,1.9,2.77,2.38,4.26,1.26,3.92,1.36,8.2,2.78,12.05,.64,1.74,2.04,3.37,4.12,2.82,1.77-.46,2.6-2.31,3.24-3.84,2.42-5.75,3.92-11.84,6.45-17.56,.79-1.78,1.64-3.55,2.6-5.24,.57-1.01,1.19-2.19,2.19-2.85,2.45-1.64,5.71,2.75,6.72,4.51,1.62,2.83,1.98,6.12,4.02,8.76,1.87,2.41,4.88,4.79,8.06,4.81,6.72,.02,8.45-9.53,9.61-14.5,1.52-6.51,2.25-13.19,3.81-19.69,.44-1.83,.98-4.15,2.05-5.56,.19-.24,.24-.22,.37-.35s.27-.15,.01-.02c.15-.07,.13,0,.2,.03,.35,.18,.76,.43,1.03,.64,3.63,2.77,6.12,6.91,10.21,9.28,12.36,7.17,22.77-8.44,23.69-19.23,.23-2.72,.13-5.59-1.06-8.1-1.46-3.09-4.62-4.81-7.96-4.97s-6.7,1.6-7.63,5c-.86,3.16-.62,6.81-.93,10.07-.29,3.02-1.13,6.3-.84,9.35,.48,4.94,4.68,9.61,8.58,12.26,2.68,1.82,5.99,2.93,9.25,2.53,2.64-.32,4.95-1.92,7.12-3.33,5.89-3.82,11.75-7.81,16.29-13.24s7.83-11.61,9.76-18.29,2.22-13.89,1.83-20.87c-.33-5.88-.99-11.76-1.93-17.58-.72-4.41-1.34-9.8-3.85-13.65-.99-1.52-2.57-2.73-4.49-2.28s-3.09,2.1-3.98,3.65c-3.02,5.27-3.95,12.05-3.72,18.03,.47,12.61,8.67,28.29,22.5,30.02,9.8,1.23,16.72-5.69,23.69-11.32,13.31-10.75,27.87-20.89,42.05-30.92,23.93-16.92,48.08-33.53,72.27-50.09,7.27-4.97,14.54-9.94,21.81-14.9,2.64-1.8,.14-6.14-2.52-4.32h0Z"/>
</svg>