<?xml version="1.0" encoding="utf-8"?>
<!-- Generator: Adobe Illustrator 26.5.2, SVG Export Plug-In . SVG Version: 6.00 Build 0)  -->
<svg version="1.1" id="Layer_1" xmlns="http://www.w3.org/2000/svg" xmlns:xlink="http://www.w3.org/1999/xlink" x="0px" y="0px"
	 viewBox="0 0 814.3 475.9" style="enable-background:new 0 0 814.3 475.9;" xml:space="preserve">
<style type="text/css">
	.st0{fill:none;stroke:#FFFFFF;stroke-width:20;stroke-miterlimit:10;}
</style>
<path class="st0" d="M486.8,10.1c-11.5-1.7-22.9-0.6-34,3c-5.7,1.9-11.2,4.2-16.6,6.9s-11,5.3-15.8,8.8
	c-17.3,12.5-33.2,27-45.7,44.4c-11.9,16.6-20.2,36-21.4,56.5s5.1,42.5,16.4,60.2s26.7,31.3,42.9,43.8c8.8,6.8,18,13.1,26.8,19.9
	c9.1,7.1,18.5,14.5,25.3,24c6.6,9.2,11.7,21.1,11.8,32.5c0.1,12.2-5.5,25.2-12.6,34.8c-7.7,10.5-18.2,18.7-28.6,26.5
	S414,386.7,403,393.8c-42.5,27.6-88.2,49.7-134.6,70c-5.7,2.5-11.5,5-17.2,7.4l3.7,2.8c-0.2,0.6-0.4,0.2,0,0.2l-2.2-1.2l0.1,0.1
	v-2.5c0.6-0.9-1.1,0.4-1.6,0.6l3.4,3.4c0.9-2.1-0.1-7.5,1.7-8.7l-3.7-1.5c1.2,3.1,0.1,5-1.9,7.2l4.2,2.4c0.4-2.3,0.7-4.6,1.1-7
	c0.1-0.6,0.4-1.3,0.4-1.9c0-0.6,0.8-1.1-0.2-0.1l-2.4,0.6c-5.3-1.1-1.1-2.9-1.7-1.4c-0.1,0.2,0,0.5,0,0.7c-0.2,0.8-0.1,1.7-0.3,2.5
	c-0.1,0.9-0.3,1.7-0.5,2.5s-0.8,1.5-0.1,1.1l3.7,2.8c2-11.5,6.5-21.6,13.3-31c6.8-9.4,15-17.8,23-26.2
	c16.2-16.9,32.6-33.6,49.6-49.6c8.5-8,17.1-15.9,26-23.5c4.5-3.9,9-7.7,13.6-11.5s9.6-7.4,13.6-12c4.2-4.9,8.9-8.6,14-12.4
	c2.1-1.6,4-3.3,5.9-5.2c0.7-0.7,1.3-1.4,2-2c1.3-1.2,2.4-1.3,3.8-2.1c2-1.2,3.5-3.3,5.2-4.9c2.2-2.1,4.7-3.9,7.1-5.8
	c4.3-3.3,8.4-6.8,12.6-10.2s9.2-6.2,13.3-10c4.7-4.3,10-8,15.2-11.6c10.3-7,20.3-14.1,30.2-21.6c19.8-15,39.8-29.7,59.8-44.4
	c39.2-28.6,78.9-56.7,118.2-85.2c44.8-32.5,89.4-65.4,132.3-100.4c1.6-1.3,0.3-4.5-1.8-4.3c-5.7,0.6-11.3,0.4-16.5,3.2
	c-1.9,1-1.5,4.1,0.6,4.6c5.8,1.5,12.2,0.2,17.2-3.1c1.9-1.2,1.4-4.9-1.3-4.7c-28.6,2.7-55.1,13.8-81.1,25.2
	c-7.1,3.1-14.3,6.1-21.3,9.2c-2.4,1.1-4.2,2.7-6.3,4.1c-3,2.1-6.6,3.2-9.9,4.5c-13.5,5.5-26.5,12.2-39.8,18s-25.5,13.5-38.7,19.5
	c-14,6.4-27.8,13-41.6,19.8c-27,13.2-53.9,26.4-80.7,40c-6,3-11.5,6.8-17.7,9.5s-11.4,6.1-17.2,9.2c-13.1,6.8-26.5,13.2-39.7,20
	c-27.1,14-54.2,28.2-81.1,42.7c-54.6,29.4-108.7,59.8-161.9,91.7c-52.8,31.7-104.6,64.9-155.2,100c-6.2,4.3-12.4,8.6-18.5,13
	c-2.6,1.8-0.1,6.2,2.5,4.3c49.9-35.3,101.1-68.7,153.2-100.6c52.5-32.1,105.9-62.6,160-92c26.9-14.6,54-29,81.2-43.2
	c13.2-6.9,26.5-13.7,39.7-20.5c6.6-3.4,13.2-6.6,19.8-9.9c5.7-2.8,10.9-6.5,16.6-9.1c6.1-2.7,11.6-5.9,17.5-9.1
	c6.3-3.4,13-6.3,19.4-9.6c13.5-6.9,27-13.6,40.5-20.3s27.3-13.5,41-20.1c13.3-6.4,27.2-12,40.1-19.3c12.8-7.2,26.1-12.9,39.4-19
	c6.8-3.1,13.5-6.3,20.4-9.3c2.9-1.2,5.8-2.3,8.6-3.6c3.1-1.4,5.4-3.3,8.2-5.1c5.7-3.7,13-5.8,19.1-8.5c6.9-3,13.7-6.1,20.7-9
	c13.2-5.5,26.8-10.6,40.7-14c7.3-1.8,14.6-3,22.1-3.7l-1.3-4.7c-3.9,2.5-8.8,3.7-13.3,2.5l0.6,4.6c4.3-2.3,9.3-1.9,14-2.5l-1.8-4.3
	C732.9,63.6,650.8,120,570.4,178.4c-20,14.5-39.8,29.1-59.6,43.9c-10,7.6-19.9,15.5-30.3,22.5c-5,3.4-10.1,6.7-15,10.2
	s-9.5,7.7-14.3,11.5c-4.1,3.2-8.5,5.9-12.5,9.3c-4.9,4.1-10.1,7.7-15,11.8c-1.8,1.5-3.3,3.3-5,4.9c-1.6,1.5-3.3,1.9-5,3.1
	c-2,1.5-3.7,3.7-5.5,5.4c-2.7,2.6-5.9,4.7-8.9,6.9c-4.3,3.2-7.3,7.1-11,11c-4.5,4.6-10.1,8.4-15.1,12.6c-9,7.6-17.9,15.3-26.5,23.3
	c-19.4,17.7-37.9,36.4-56.1,55.3c-8.7,9.1-17.6,18.2-25.2,28.3c-3.7,4.9-7.3,10.1-9.8,15.8c-2.7,6.1-4.4,12-5.6,18.6
	c-0.4,2,1.7,4.1,3.7,2.8c3-1.9,3.8-8.5,3.3-11.8c-0.3-2.4-2.8-4-4.7-1.8c-2,2.5-1.9,7.9-2.4,10.8c-0.3,2.3,2.3,4.4,4.2,2.4
	c3.3-3.5,5.1-7.3,3.2-12c-0.6-1.4-2.2-2.5-3.7-1.5c-1.7,1.1-2.8,2.3-3.2,4.3s0.6,4.4-0.2,6.2c-1,2.3,1.1,4.5,3.4,3.4
	c1.3-0.6,2.6-1.1,3.4-2.4c0.4-0.7,0.5-1.9,0-2.5c-2.1-2.8-6.1-0.8-7.1,2.1c-0.7,2.3,1.8,3.6,3.7,2.8c45.7-19.6,91-40.3,133.7-66
	c21.8-13.2,43.7-27.3,63.2-43.7c9-7.6,18.1-16.3,23.3-27.1c4.7-9.7,8.3-20.7,7.5-31.6c-1.6-22.6-17.3-40.2-34.2-53.7
	c-16.9-13.5-35.1-25.1-51-40c-15.2-14.2-27.8-31.2-33.8-51.4c-6.3-21.3-5.2-43.5,3.8-63.9c8.6-19.7,22.8-36.4,38.7-50.6
	c17-15.3,38.3-28.8,61.3-32.5c6.4-1,13-1.1,19.4-0.1C488.7,15.4,490,10.5,486.8,10.1L486.8,10.1L486.8,10.1z"/>
<path class="st0" d="M571.8,53.3c-24.8,16.9-49.6,33.9-74.2,51c-16.7,11.6-33.4,23.3-49.7,35.4c-4.9,3.7-9.8,7.4-14.6,11.2
	c-2.1,1.8-4.1,3.7-6.4,5.2c-5,3.4-11,5.1-16.6,2.1c-11.2-6-15.1-20.6-12.6-32.4c0.5-2.3,1.1-4.6,2.3-6.7c0.3-0.5,1-1.1,1.1-1.5
	c-0.1,0.5-1.4-0.1-1.5-0.1c0.2-0.1,0.2,0.3,0.2,0.3c0.2,0.3,0.4,0.6,0.5,0.9c0.3,0.7,0.6,1.7,0.9,2.6c0.7,2.3,1.1,4.6,1.6,6.9
	c1,5.3,1.6,10.7,2,16.1c0.5,6.3,0.5,12.8-0.8,18.9s-4,11.7-7.6,16.7c-3.9,5.4-9.1,9.4-14.6,13c-2.2,1.4-4.5,3.3-7,4.1
	c-1.9,0.6-5.1-0.6-7.1-2.2c-1.3-0.9-2.4-2.1-3.3-3.4c-0.5-0.6-0.9-1.3-1.3-2c-0.2-0.3-0.4-0.7-0.5-1c-0.2-0.4-0.2-0.6-0.1-0.3
	c-0.1-0.4-0.2-0.7-0.3-1.1s0-0.3,0,0.1c0-0.2,0-0.5,0-0.7c0.1-3.4,0.8-6.9,1-10.4c0.1-1.7,0.3-3.5,0.4-5.2c0.1-1.1,0-2.2,1.1-2.8
	c2.7-1.4,5.4,1,5.9,3.5c1,5.2-1.2,11-4.2,15.1c-2.8,3.8-7.3,6.8-11.9,4.1s-12.6-16.3-18.5-7.9c-2.7,3.8-3.2,9.2-4,13.6
	c-1.1,6.4-2.1,12.8-4.1,18.9c-0.5,1.6-1.5,5.5-3.9,4.7c-2.6-0.9-4.2-3.6-5-6.1c-1.8-5.1-5.8-12.5-12.2-12.2s-9,8.6-11,13.3
	c-2.1,5.2-3.5,10.6-5.7,15.8c-0.1,0.3-0.3,0.7-0.5,1c-0.2,0.5-0.1,0.3-0.2,0.3c0.3,0,0.8-0.4,1.2-0.4c1,0,0.8,0.2,1.3,0.5l0.2,0.3
	l-0.1-0.1c-0.1,0,0,0.1,0-0.1c-0.5-1.5-0.8-3.1-1-4.7c-0.8-4-1.5-8.5-3.9-11.9c-3.1-4.4-8.2-4.3-12.5-1.5c-5,3.3-8.7,9.1-7.7,15.2
	c0.4,2.4,1.5,4.6,1.8,7.1c0.2,1.4-0.2,2.6-0.5,4c-0.2,0.9,0.3-0.5,0,0.1c-0.2,0.3-0.4,0.5-0.5,0.8c-1.3,1.8-2.7,3.6-4,5.4
	c-1,1.3-2,2.7-2.9,4s-2,3.1-3.5,3.7c-2.8,1.1-5.4-2-6.5-4.1c-1.6-3.4-1.8-7.2-3.2-10.7c-1-2.5-4.9-2.4-4.9,0.7
	c0.1,6.1-0.6,12.2-2.2,18.2c-1.1,4-2.8,9-7.9,7.4c-10.4-3.2-5-19.6,1.3-24.4c1.5-1.2,3.5-1.8,5.2-0.7c1.6,1,2.2,2.9,2.5,4.6
	c0.9,4.3-0.4,9.1-2.3,13c-1.5,3-3.2,5.4-5.9,7.4c-1.5,1.1-3.3,1.8-5.1,1.4c-1.7-0.3-3.3-1.4-4.9-2.1c-8.4-3.6-17.9-2.9-26.1,0.8
	c-4.7,2.1-9.1,5.3-11.8,9.8c-2.5,4.2-3.2,9.6-0.7,14c2.2,4,6.8,6.9,11.5,6.1c5-0.8,8.2-5.2,10.1-9.5c2.4-5.3,3.4-11,3.7-16.8
	s-0.3-11.1-4.1-15.7s-8.9-8.5-12.9-13.1s-7.4-9.9-9-15.9c-0.8-2.9-1.1-5.9-0.7-8.9c0.3-2.4,0.9-5.5,2.6-7.3c2.3-2.4,6.2-2.7,9.4-2.9
	s3.2-5.2,0-5c-3.5,0.2-7,0.6-10.1,2.3c-4.7,2.5-6.3,7.6-6.8,12.6c-1.3,12,5.5,22.8,13.4,31.1c2,2.1,4.1,4.1,6.2,6.1s4.3,3.9,5.7,6.4
	c1.4,2.7,1.5,5.9,1.4,8.9s-0.3,6.1-0.9,9c-0.9,4.5-3,12.3-8.1,13.7c-4.8,1.4-8.3-4.4-7.7-8.5c0.9-5.7,6.1-9.4,10.9-11.8
	c3.6-1.8,7.6-2.7,11.6-2.8c2.9-0.1,5.7,0.3,8.4,1.1c2.1,0.7,4,1.7,6.1,2.6c4.5,1.8,8.9,0.2,12.4-2.8c6.3-5.5,10-15,8.9-23.4
	c-0.6-4.4-2.9-8.9-7.6-9.9c-5.4-1.2-9.9,2.8-12.6,7.1c-5.5,8.5-7.8,23,3.6,27.7c4.4,1.9,9.4,0.9,12.3-3.1c1.6-2.2,2.4-5,3.1-7.7
	c0.8-3.1,1.4-6.2,1.8-9.3s0.6-6.6,0.5-9.9l-4.9,0.7c2.6,6.7,2.8,16.4,11.4,18.5c3.6,0.9,6.8-0.9,9.1-3.6s4.2-5.8,6.4-8.6
	c1-1.4,2.2-2.7,3-4.2c1.4-2.5,1.4-5.7,0.8-8.4c-0.5-2.5-1.9-5-1.8-7.6c0.1-3.1,2.3-6,4.6-7.9c1.5-1.1,4.1-2.7,5.7-1.5
	c1.1,0.8,1.9,2.8,2.4,4.3c1.3,3.9,1.4,8.2,2.8,12.1c0.6,1.7,2,3.4,4.1,2.8c1.8-0.5,2.6-2.3,3.2-3.8c2.4-5.8,3.9-11.8,6.5-17.6
	c0.8-1.8,1.6-3.6,2.6-5.2c0.6-1,1.2-2.2,2.2-2.9c2.5-1.6,5.7,2.8,6.7,4.5c1.6,2.8,2,6.1,4,8.8c1.9,2.4,4.9,4.8,8.1,4.8
	c6.7,0,8.5-9.5,9.6-14.5c1.5-6.5,2.2-13.2,3.8-19.7c0.4-1.8,1-4.1,2-5.6c0.2-0.2,0.2-0.2,0.4-0.4s0.3-0.1,0,0c0.1-0.1,0.1,0,0.2,0
	c0.4,0.2,0.8,0.4,1,0.6c3.6,2.8,6.1,6.9,10.2,9.3c12.4,7.2,22.8-8.4,23.7-19.2c0.2-2.7,0.1-5.6-1.1-8.1c-1.5-3.1-4.6-4.8-8-5
	s-6.7,1.6-7.6,5c-0.9,3.2-0.6,6.8-0.9,10.1c-0.3,3-1.1,6.3-0.8,9.4c0.5,4.9,4.7,9.6,8.6,12.3c2.7,1.8,6,2.9,9.2,2.5
	c2.6-0.3,5-1.9,7.1-3.3c5.9-3.8,11.8-7.8,16.3-13.2s7.8-11.6,9.8-18.3s2.2-13.9,1.8-20.9c-0.3-5.9-1-11.8-1.9-17.6
	c-0.7-4.4-1.3-9.8-3.9-13.7c-1-1.5-2.6-2.7-4.5-2.3s-3.1,2.1-4,3.7c-3,5.3-4,12.1-3.7,18c0.5,12.6,8.7,28.3,22.5,30
	c9.8,1.2,16.7-5.7,23.7-11.3c13.3-10.8,27.9-20.9,42-30.9c23.9-16.9,48.1-33.5,72.3-50.1c7.3-5,14.5-9.9,21.8-14.9
	C577,55.8,574.5,51.5,571.8,53.3L571.8,53.3L571.8,53.3z"/>
</svg>
